<svg width="65" height="64" viewBox="0 0 65 64" fill="none" xmlns="http://www.w3.org/2000/svg">
<g clip-path="url(#clip0_916_14874)">
<path opacity="0.2" d="M53.7124 23.4134C53.7124 41.1746 34.166 56.9863 32.2329 56.9863C30.2997 56.9863 10.7534 40.7414 10.7534 23.4134C10.7534 11.4509 20.3701 1.75342 32.2329 1.75342C44.0957 1.75342 53.7124 11.4509 53.7124 23.4134Z" fill="#0087D2"/>
<path fill-rule="evenodd" clip-rule="evenodd" d="M32.2329 3.25342C21.2103 3.25342 12.2534 12.2675 12.2534 23.4134C12.2534 31.5543 16.8736 39.6089 21.9261 45.7443C24.432 48.7872 26.9942 51.2968 29.0342 53.0358C30.056 53.9067 30.9294 54.5695 31.585 55.0051C31.8567 55.1856 32.0748 55.3163 32.2391 55.4041C32.4037 55.3183 32.6221 55.1906 32.8941 55.0141C33.549 54.589 34.4216 53.9412 35.4423 53.0876C37.4803 51.3832 40.0401 48.9155 42.5438 45.9018C47.5875 39.8304 52.2124 31.7748 52.2124 23.4134C52.2124 12.2675 43.2554 3.25342 32.2329 3.25342ZM31.9951 55.5158C31.9952 55.5157 31.9974 55.5149 32.0018 55.5137C31.9972 55.5152 31.995 55.5159 31.9951 55.5158ZM32.4745 55.5159C32.4799 55.5175 32.4828 55.5185 32.4829 55.5187C32.483 55.5188 32.4803 55.518 32.4745 55.5159ZM9.25342 23.4134C9.25342 10.6343 19.5299 0.253418 32.2329 0.253418C44.9359 0.253418 55.2124 10.6343 55.2124 23.4134C55.2124 32.8132 50.064 41.544 44.8514 47.8188C42.2267 50.9782 39.5375 53.5735 37.3669 55.3889C36.2833 56.2951 35.3117 57.0214 34.5276 57.5304C34.1378 57.7834 33.7707 57.9983 33.4438 58.1557C33.1899 58.2781 32.727 58.4863 32.2329 58.4863C31.7293 58.4863 31.2604 58.2689 31.0086 58.1445C30.6814 57.9828 30.3141 57.7625 29.9248 57.5038C29.1414 56.9833 28.1707 56.2416 27.0881 55.3189C24.9195 53.4704 22.2326 50.8357 19.6103 47.6514C14.4064 41.3323 9.25342 32.6005 9.25342 23.4134ZM32.6712 13.3356C30.3524 13.3356 28.4726 15.2154 28.4726 17.5343C28.4726 19.8531 30.3524 21.7329 32.6712 21.7329C34.9901 21.7329 36.8699 19.8531 36.8699 17.5343C36.8699 15.2154 34.9901 13.3356 32.6712 13.3356ZM25.4726 17.5343C25.4726 13.5586 28.6955 10.3356 32.6712 10.3356C36.6469 10.3356 39.8699 13.5586 39.8699 17.5343C39.8699 21.51 36.6469 24.7329 32.6712 24.7329C28.6955 24.7329 25.4726 21.51 25.4726 17.5343ZM20.7291 56.7437C21.5447 56.5983 22.088 55.8193 21.9426 55.0037C21.7972 54.1882 21.0182 53.6449 20.2026 53.7902C18.121 54.1613 16.3237 54.6411 15.0094 55.2286C14.3571 55.5202 13.7413 55.8742 13.2661 56.3173C12.7917 56.7598 12.3219 57.4256 12.3219 58.3014C12.3219 59.0816 12.6977 59.6994 13.1111 60.1324C13.5184 60.5589 14.0439 60.898 14.5908 61.1751C15.6893 61.7316 17.181 62.1894 18.9001 62.5577C22.3628 63.2998 27.0759 63.7466 32.2329 63.7466C37.3899 63.7466 42.103 63.2998 45.5657 62.5577C47.2848 62.1894 48.7765 61.7316 49.8749 61.1751C50.4218 60.898 50.9474 60.5589 51.3546 60.1324C51.7681 59.6994 52.1439 59.0816 52.1439 58.3014C52.1439 57.4256 51.6741 56.7598 51.1997 56.3173C50.7245 55.8742 50.1087 55.5202 49.4564 55.2286C48.142 54.6411 46.3448 54.1613 44.2631 53.7902C43.4476 53.6449 42.6686 54.1882 42.5232 55.0037C42.3778 55.8193 42.9211 56.5983 43.7366 56.7437C45.7146 57.0963 47.2394 57.5237 48.2321 57.9674C48.5062 58.09 48.7154 58.2032 48.8709 58.3013C48.7765 58.361 48.6604 58.4274 48.5191 58.4989C47.7543 58.8864 46.5498 59.2788 44.9371 59.6243C41.7364 60.3102 37.244 60.7466 32.2329 60.7466C27.2218 60.7466 22.7294 60.3102 19.5287 59.6243C17.916 59.2788 16.7115 58.8864 15.9466 58.4989C15.8054 58.4274 15.6893 58.361 15.5948 58.3013C15.7504 58.2032 15.9595 58.09 16.2337 57.9674C17.2264 57.5237 18.7512 57.0963 20.7291 56.7437ZM49.2121 58.5728C49.212 58.5728 49.211 58.5715 49.2093 58.569C49.2113 58.5715 49.2121 58.5728 49.2121 58.5728ZM15.2537 58.5728C15.2537 58.5728 15.2545 58.5715 15.2565 58.569C15.2548 58.5715 15.2538 58.5728 15.2537 58.5728Z" fill="#0087D2"/>
</g>
<defs>
<clipPath id="clip0_916_14874">
<rect width="64" height="64" fill="white" transform="translate(0.5)"/>
</clipPath>
</defs>
</svg>
