<svg width="24" height="24" viewBox="0 0 24 24" fill="none" xmlns="http://www.w3.org/2000/svg">
<path d="M8.29395 12.7C7.74166 12.7 7.29395 13.1477 7.29395 13.7C7.29395 14.2523 7.74166 14.7 8.29395 14.7H8.30395C8.85623 14.7 9.30395 14.2523 9.30395 13.7C9.30395 13.1477 8.85623 12.7 8.30395 12.7H8.29395Z" fill="black"/>
<path d="M11.9949 12.7C11.4427 12.7 10.9949 13.1477 10.9949 13.7C10.9949 14.2523 11.4427 14.7 11.9949 14.7H12.0049C12.5572 14.7 13.0049 14.2523 13.0049 13.7C13.0049 13.1477 12.5572 12.7 12.0049 12.7H11.9949Z" fill="black"/>
<path d="M8.29395 15.7C7.74166 15.7 7.29395 16.1477 7.29395 16.7C7.29395 17.2523 7.74166 17.7 8.29395 17.7H8.30395C8.85623 17.7 9.30395 17.2523 9.30395 16.7C9.30395 16.1477 8.85623 15.7 8.30395 15.7H8.29395Z" fill="black"/>
<path fill-rule="evenodd" clip-rule="evenodd" d="M9 2C9 1.44772 8.55228 1 8 1C7.44772 1 7 1.44772 7 2V2.55342C5.52234 2.71775 4.32081 3.26182 3.45471 4.19455C2.41318 5.31619 2 6.84671 2 8.5V17C2 18.6533 2.41318 20.1838 3.45471 21.3055C4.50869 22.4405 6.0594 23 8 23H16C17.9406 23 19.4913 22.4405 20.5453 21.3055C21.5868 20.1838 22 18.6533 22 17V8.5C22 6.84671 21.5868 5.31619 20.5453 4.19455C19.6792 3.26182 18.4777 2.71775 17 2.55342V2C17 1.44772 16.5523 1 16 1C15.4477 1 15 1.44772 15 2V2.5H9V2ZM4.92029 5.55545C5.35731 5.08482 6.01591 4.71635 7 4.56933V5C7 5.55228 7.44772 6 8 6C8.55228 6 9 5.55228 9 5V4.5H15V5C15 5.55228 15.4477 6 16 6C16.5523 6 17 5.55228 17 5V4.56933C17.9841 4.71635 18.6427 5.08482 19.0797 5.55545C19.6022 6.11812 19.9269 6.95434 19.9891 8.09H4.01094C4.07311 6.95434 4.39781 6.11812 4.92029 5.55545ZM4 10.09H20V17C20 18.3467 19.6632 19.3162 19.0797 19.9445C18.5087 20.5595 17.5594 21 16 21H8C6.4406 21 5.49131 20.5595 4.92029 19.9445C4.33682 19.3162 4 18.3467 4 17V10.09Z" fill="black"/>
</svg>
