<svg width="24" height="24" viewBox="0 0 24 24" fill="none" xmlns="http://www.w3.org/2000/svg">
<path d="M8.93762 8.00195C9.48883 7.9675 9.9636 8.38641 9.99805 8.93762L10.4981 16.9376C10.5325 17.4888 10.1136 17.9636 9.56238 17.9981C9.01117 18.0325 8.5364 17.6136 8.50195 17.0624L8.00195 9.06238C7.9675 8.51117 8.38641 8.0364 8.93762 8.00195Z" fill="black"/>
<path d="M14.0019 8.93762C14.0364 8.38641 14.5112 7.9675 15.0624 8.00195C15.6136 8.0364 16.0325 8.51117 15.9981 9.06238L15.4981 17.0624C15.4636 17.6136 14.9888 18.0325 14.4376 17.9981C13.8864 17.9636 13.4675 17.4888 13.5019 16.9376L14.0019 8.93762Z" fill="black"/>
<path fill-rule="evenodd" clip-rule="evenodd" d="M7 4C7 2.34315 8.34315 1 10 1H14C15.6569 1 17 2.34315 17 4H21C21.5523 4 22 4.44772 22 5C22 5.55228 21.5523 6 21 6H20.9009L19.4979 19.416C19.2849 21.453 17.5677 23 15.5196 23H8.48041C6.43233 23 4.71512 21.453 4.50211 19.416L3.09912 6H3C2.44772 6 2 5.55228 2 5C2 4.44772 2.44772 4 3 4H7ZM9 4C9 3.44772 9.44772 3 10 3H14C14.5523 3 15 3.44772 15 4H9ZM5.11003 6H18.89L17.5087 19.208C17.4022 20.2265 16.5436 21 15.5196 21H8.48041C7.45637 21 6.59777 20.2265 6.49126 19.208L5.11003 6Z" fill="black"/>
</svg>
